<?xml version="1.0" standalone="no"?>
<!DOCTYPE svg PUBLIC "-//W3C//DTD SVG 20010904//EN"
 "http://www.w3.org/TR/2001/REC-SVG-20010904/DTD/svg10.dtd">
<svg version="1.0" xmlns="http://www.w3.org/2000/svg"
 width="413.000000pt" height="413.000000pt" viewBox="0 0 413.000000 413.000000"
 preserveAspectRatio="xMidYMid meet">
<metadata>
Created by potrace 1.11, written by Peter Selinger 2001-2013
</metadata>
<g transform="translate(0.000000,413.000000) scale(0.100000,-0.100000)"
fill="#000000" stroke="none">
<path d="M1905 3394 c-226 -48 -387 -209 -459 -457 -92 -317 -69 -553 76 -772
37 -56 32 -49 125 -163 169 -206 217 -272 254 -348 37 -77 61 -179 54 -229 -2
-11 -6 -46 -10 -78 -8 -71 -49 -201 -77 -243 -41 -60 -120 -82 -189 -54 -63
26 -80 125 -50 292 16 88 16 98 2 102 -9 2 -122 4 -253 4 l-236 -1 -6 -31 c-3
-17 -8 -42 -11 -56 -16 -73 -19 -115 -19 -220 0 -92 5 -129 22 -183 48 -147
136 -235 284 -287 80 -28 110 -32 263 -35 276 -7 452 54 587 204 75 84 158
269 185 410 36 193 40 383 10 486 -47 166 -149 329 -357 575 -25 29 -50 58
-56 65 -32 31 -104 150 -123 199 -25 67 -27 135 -6 241 24 127 70 179 158 179
39 0 53 -5 75 -27 24 -24 27 -36 30 -105 2 -48 -4 -114 -15 -173 l-19 -96 243
-1 244 0 13 33 c31 74 41 291 19 398 -39 188 -156 310 -348 363 -84 23 -318
27 -410 8z"/>
<path d="M3325 3395 c-133 -29 -241 -89 -321 -179 -77 -87 -156 -271 -179
-418 -3 -18 -9 -57 -14 -87 -11 -72 -7 -226 9 -293 15 -65 65 -175 112 -249
27 -43 254 -327 277 -349 36 -32 113 -170 137 -245 26 -83 26 -185 -1 -304
-40 -171 -90 -233 -192 -233 -88 0 -126 53 -124 171 1 42 3 85 5 96 3 19 15
93 21 126 3 14 -23 16 -248 15 l-251 -1 -8 -30 c-18 -67 -29 -160 -32 -259 -7
-261 120 -437 364 -503 95 -25 377 -25 475 1 132 35 235 92 308 171 33 36 110
145 102 145 -3 0 1 10 10 23 36 56 95 272 111 412 10 86 7 230 -6 289 -41 180
-130 332 -350 596 -185 222 -224 299 -215 430 11 174 55 254 152 275 42 8 98
-18 112 -53 19 -45 19 -132 -1 -237 -10 -55 -18 -103 -18 -106 0 -4 110 -7
244 -7 240 1 244 1 251 22 35 115 44 308 18 423 -42 188 -176 314 -378 356
-87 18 -290 19 -370 2z"/>
<path d="M230 3365 c0 -1 -11 -53 -25 -116 -14 -63 -27 -123 -29 -134 -13 -70
-38 -179 -41 -186 -9 -13 20 -15 198 -14 202 1 187 10 162 -97 -8 -35 -17 -78
-20 -96 -3 -19 -19 -95 -35 -170 -16 -76 -52 -245 -81 -377 -28 -132 -53 -249
-55 -260 -3 -11 -7 -31 -10 -45 -2 -14 -11 -56 -20 -95 -8 -38 -16 -79 -18
-90 -10 -48 -47 -224 -56 -260 -12 -51 -70 -322 -76 -355 -3 -14 -23 -108 -44
-209 -22 -101 -38 -186 -35 -190 2 -4 117 -7 256 -6 l253 0 8 30 c7 26 32 144
84 395 7 36 16 76 18 90 5 24 61 292 70 335 3 11 19 88 36 170 38 177 29 134
80 380 43 205 44 212 54 255 3 14 8 36 10 50 3 14 18 90 35 170 17 80 33 156
36 170 6 34 12 60 19 90 3 14 8 37 10 53 11 67 -3 63 207 62 218 -1 199 -9
218 95 6 30 20 98 31 150 25 118 29 137 36 176 l6 31 -641 0 c-353 0 -641 -1
-641 -2z"/>
</g>
</svg>
