<?xml version="1.0" encoding="utf-8"?>
<!-- Generator: Adobe Illustrator 23.0.2, SVG Export Plug-In . SVG Version: 6.00 Build 0)  -->
<svg version="1.1" id="Layer_1" xmlns="http://www.w3.org/2000/svg" xmlns:xlink="http://www.w3.org/1999/xlink" x="0px" y="0px"
	 viewBox="0 0 300 50" style="enable-background:new 0 0 300 50;" xml:space="preserve">
<style type="text/css">
	.st0{fill:#D81F26;}
</style>
<g>
	<g>
		<path class="st0" d="M17,13.1h-5.2L13.1,7h17.4l-1.3,6.1h-5.3l-6.5,30.6h-6.9L17,13.1z"/>
		<path class="st0" d="M31.3,10.3h6.3l-2.8,13h4l2.8-13H48l-7.1,33.4h-6.4l3.1-14.8h-4l-3.1,14.8h-6.3L31.3,10.3z"/>
		<path class="st0" d="M60.2,28.8h-6.9l-1.9,9.4h8.3l-1.9,5.5H43.9L51,10.3h13.6l-1.2,5.5h-7.3l-1.6,7.5h6.9L60.2,28.8z"/>
		<path class="st0" d="M73.5,33.1l-0.3,1.7c-0.4,2.5-0.1,3.9,1.6,3.9c1.5,0,2.2-1.1,2.7-3.6c0.6-3,0.1-4.8-3-8.4
			c-3.7-4.3-5.2-6.7-4.1-12.3c1.1-5.4,4-8,9.1-8c8,0,8.6,5.6,7.7,10.3L87,17.5h-6.6l0.3-1.4C81,13.7,81,12,79.3,12
			c-1.1,0-1.9,0.7-2.2,2.6c-0.5,2.6,0,3.8,2.5,6.7c4.9,5.7,6,8.6,4.8,14.3c-1.2,6-4.3,8.6-10.2,8.6c-6.9,0-9-4-7.7-10.2l0.2-0.9
			H73.5z"/>
		<path class="st0" d="M84.7,43.7l7.1-33.4H99c0,10-0.2,21.1-0.3,22.5h0.2c0.6-4.6,1.8-12.4,2.8-17.1l1.2-5.5h5.9l-7.1,33.4h-7.2
			c0.1-8.8,0.2-21.6,0.2-22.7h-0.2c-0.6,3.9-1.8,11.8-2.8,17l-1.2,5.7H84.7z"/>
		<path class="st0" d="M120.9,28.8h-6.9l-1.9,9.4h8.3l-1.9,5.5h-13.9l7.1-33.4h13.6l-1.2,5.5h-7.3l-1.6,7.5h6.9L120.9,28.8z"/>
		<path class="st0" d="M128.1,35.5l-2.5,8.1H119l11.5-33.4h9.7l-2.5,33.4h-6.3l0.7-8.1H128.1z M132.7,30c0.4-3.9,1.1-11,1.3-14.1
			h-0.3c-0.6,2.5-2.7,9.8-4,14.1H132.7z"/>
		<path class="st0" d="M146.1,10.3h6.1l-3.1,14.1h0.2c1.8-3.2,5.5-10.3,7.5-14.1h7l-8.1,13.1l1.3,20.3h-6.4l-0.3-14l-2.8,4l-2.5,10
			H139L146.1,10.3z"/>
		<path class="st0" d="M173.9,28.8h-6.9l-1.9,9.4h8.3l-1.9,5.5h-13.9l7.1-33.4h13.6l-1.2,5.5h-7.3l-1.6,7.5h6.9L173.9,28.8z"/>
		<path class="st0" d="M182.8,29.3l-3.1,14.4h-6.3l7.1-33.4h7.7c5.6,0,8.1,2.9,6.9,8.7l-0.4,1.9c-0.8,4-2.5,5.5-4.5,6
			c1.4,1,2.4,2.5,1.2,7.7c-0.7,3.2-1.6,7.3-1.7,9h-6.2c-0.1-1.5,0.7-5,1.8-10.3c0.7-3.3,0.4-4.1-1.7-4.1H182.8z M183.8,24.3h0.9
			c2.3,0,3-0.7,3.6-3.7l0.4-2.1c0.4-2.2,0.2-3.3-2-3.3h-1L183.8,24.3z"/>
		<path class="st0" d="M205.9,33.1l-0.3,1.7c-0.4,2.5-0.1,3.9,1.6,3.9c1.5,0,2.2-1.1,2.7-3.6c0.6-3,0.1-4.8-3-8.4
			c-3.7-4.3-5.2-6.7-4.1-12.3c1.1-5.4,4-8,9.1-8c8,0,8.6,5.6,7.7,10.3l-0.1,0.8h-6.6l0.3-1.4c0.4-2.4,0.4-4.1-1.3-4.1
			c-1.1,0-1.9,0.7-2.2,2.6c-0.5,2.6,0,3.8,2.5,6.7c4.9,5.7,6,8.6,4.8,14.3c-1.2,6-4.3,8.6-10.2,8.6c-6.9,0-9-4-7.7-10.2l0.2-0.9
			H205.9z"/>
		<path class="st0" d="M226,15.9h-4.7l1.2-5.5h15.8l-1.2,5.5h-4.8l-5.9,27.8h-6.3L226,15.9z"/>
		<path class="st0" d="M254.1,19.8l-3.3,15.4c-1.3,6.1-3.5,9-9.7,9c-6.1,0-8.3-3.6-7-9.8l3.4-16.3c1.3-6.1,4.5-8.3,9.3-8.3
			C252.7,9.8,255.5,13.3,254.1,19.8z M243.9,18.1l-3.7,17.6c-0.4,1.8-0.3,3.4,1.5,3.4c1.5,0,2.1-1.3,2.6-3.3l3.7-17.6
			c0.4-1.9,0.1-3.2-1.6-3.2C245.1,15,244.3,15.9,243.9,18.1z"/>
		<path class="st0" d="M261,29.3l-3.1,14.4h-6.3l7.1-33.4h7.7c5.6,0,8.1,2.9,6.9,8.7l-0.4,1.9c-0.8,4-2.5,5.5-4.5,6
			c1.4,1,2.4,2.5,1.2,7.7c-0.7,3.2-1.6,7.3-1.7,9h-6.2c-0.1-1.5,0.7-5,1.8-10.3c0.7-3.3,0.4-4.1-1.7-4.1H261z M262.1,24.3h0.9
			c2.3,0,3-0.7,3.6-3.7l0.4-2.1c0.4-2.2,0.2-3.3-2-3.3h-1L262.1,24.3z"/>
		<path class="st0" d="M286.6,28.8h-6.9l-1.9,9.4h8.3l-1.9,5.5h-13.9l7.1-33.4h13.6l-1.2,5.5h-7.3l-1.6,7.5h6.9L286.6,28.8z"/>
	</g>
</g>
</svg>
