<?xml version="1.0" encoding="utf-8"?>
<!-- Generator: Adobe Illustrator 23.0.2, SVG Export Plug-In . SVG Version: 6.00 Build 0)  -->
<svg version="1.1" id="Layer_1" xmlns="http://www.w3.org/2000/svg" xmlns:xlink="http://www.w3.org/1999/xlink" x="0px" y="0px"
	 viewBox="0 0 60 60" style="enable-background:new 0 0 60 60;" xml:space="preserve">
<style type="text/css">
	.st0{fill:#D81F26;}
</style>
<g>
	<g>
		<path class="st0" d="M8.6,17.6H3.4l1.3-6.1h17.4l-1.3,6.1h-5.3L9.1,48.2H2.1L8.6,17.6z"/>
		<path class="st0" d="M23.9,37.6l-0.3,1.7c-0.4,2.5-0.1,3.9,1.6,3.9c1.5,0,2.2-1.1,2.7-3.6c0.6-3,0.1-4.8-3-8.4
			c-3.7-4.3-5.2-6.7-4.1-12.3c1.1-5.4,4-8,9.1-8c8,0,8.6,5.6,7.7,10.3L37.3,22h-6.6l0.3-1.4c0.4-2.4,0.4-4.1-1.3-4.1
			c-1.1,0-1.9,0.7-2.2,2.6c-0.5,2.6,0,3.8,2.5,6.7c4.9,5.7,6,8.6,4.8,14.3c-1.2,6-4.3,8.6-10.2,8.6c-6.9,0-9-4-7.7-10.2l0.2-0.9
			H23.9z"/>
		<path class="st0" d="M43.1,37.6l-0.3,1.7c-0.4,2.5-0.1,3.9,1.6,3.9c1.5,0,2.2-1.1,2.7-3.6c0.6-3,0.1-4.8-3-8.4
			c-3.7-4.3-5.2-6.7-4.1-12.3c1.1-5.4,4-8,9.1-8c8,0,8.6,5.6,7.7,10.3L56.5,22h-6.6l0.3-1.4c0.4-2.4,0.4-4.1-1.3-4.1
			c-1.1,0-1.9,0.7-2.2,2.6c-0.5,2.6,0,3.8,2.5,6.7c4.9,5.7,6,8.6,4.8,14.3c-1.2,6-4.3,8.6-10.2,8.6c-6.9,0-9-4-7.7-10.2l0.2-0.9
			H43.1z"/>
	</g>
</g>
</svg>
